<svg xmlns="http://www.w3.org/2000/svg" width="682.667" height="682.667" preserveAspectRatio="xMidYMid meet" version="1.0" viewBox="0 0 512 512"><g fill="#000" stroke="none"><path d="M3255 4987 c158 -117 358 -314 464 -459 36 -48 66 -86 67 -85 2 2 -5 34 -15 73 -21 82 -16 102 35 155 l35 36 -93 60 c-115 75 -282 159 -410 207 -112 42 -124 44 -83 13z" transform="translate(0.000000,512.000000) scale(0.100000,-0.100000)"/><path d="M3596 4031 l-239 -239 -84 64 c-76 58 -272 163 -333 179 -24 6 -24 5 5 -16 67 -51 208 -197 254 -264 l50 -71 -282 -282 c-222 -221 -285 -279 -297 -272 -25 16 -34 11 -17 -8 15 -17 11 -24 -78 -112 -80 -80 -95 -100 -95 -126 0 -47 30 -78 74 -78 32 0 46 9 111 74 82 81 89 79 59 -19 -31 -107 -123 -175 -237 -176 l-69 0 39 -18 c61 -28 167 -20 229 18 94 58 139 164 115 271 l-13 56 69 70 c37 38 157 156 266 261 153 147 201 187 207 176 5 -7 21 -50 34 -94 207 -657 -174 -1346 -841 -1522 -141 -37 -384 -44 -528 -14 -54 11 -100 19 -102 17 -2 -1 31 -22 73 -46 301 -172 698 -200 1024 -71 584 229 893 874 704 1471 -35 113 -109 258 -178 350 l-56 75 240 237 c133 130 237 238 233 241 -4 3 -22 8 -40 12 -28 5 -34 13 -45 51 l-13 44 -239 -239z" transform="translate(0.000000,512.000000) scale(0.100000,-0.100000)"/><path d="M3950 4155 c0 -1 18 -45 39 -96 41 -99 96 -271 129 -404 11 -44 38 -132 61 -195 72 -205 85 -292 86 -555 0 -205 -3 -242 -24 -340 -35 -165 -74 -275 -151 -430 -210 -421 -560 -722 -1015 -873 -66 -22 -154 -56 -195 -75 -303 -140 -590 -202 -935 -201 -219 0 -346 15 -535 62 -61 16 -110 25 -110 22 0 -4 18 -16 40 -29 22 -12 40 -24 40 -26 0 -2 -80 -190 -179 -417 -98 -227 -185 -429 -194 -449 -8 -19 -29 -51 -46 -71 -17 -20 -31 -38 -31 -41 0 -12 69 -31 115 -31 58 0 121 29 157 72 19 23 234 502 351 784 11 27 25 47 31 44 200 -94 469 -173 680 -201 144 -18 411 -21 543 -5 281 34 641 150 848 273 33 19 63 32 67 29 4 -4 46 -97 93 -207 93 -214 298 -689 321 -743 14 -31 15 -32 42 -18 62 32 103 104 104 181 1 47 -16 92 -137 372 -75 175 -160 371 -188 437 l-51 119 49 40 c85 69 288 278 352 362 189 250 324 529 397 824 138 549 52 1156 -231 1640 -31 53 -65 109 -75 124 l-20 28 -45 -42 c-54 -49 -59 -49 -255 4 -71 19 -128 34 -128 32z" transform="translate(0.000000,512.000000) scale(0.100000,-0.100000)"/></g></svg>